<svg width="400" height="96" viewBox="0 0 400 96" fill="none" xmlns="http://www.w3.org/2000/svg">
<path fill-rule="evenodd" clip-rule="evenodd" d="M0 0L5.66667 2.35991C11 4.71983 22.3333 9.43965 33.3333 10.2263C44.3333 11.0129 44 6.84038 61.5 4.48047C79 2.12056 86.5 11.0129 97.5 10.2263C108.5 9.43965 122.333 -4.76837e-07 133.333 3.14655C144.333 6.2931 150.5 12.4805 161.5 12.4805C172.5 12.4805 183.5 4.71983 200 3.14655C216.5 1.57327 223.5 10.1206 234.5 12.4805C245.5 14.8404 257 5.69344 268 6.48008C279 7.26672 283.5 20.3803 300 14.4805C316.5 8.58069 322.5 8.88066 339.5 10.9805C356.5 13.0803 358.167 3.14655 370.5 3.14655C382.833 3.14655 389 3.14655 394.333 1.57327L400 0V95.9801H394.333C389 95.9801 377.667 95.9801 366.667 95.9801C355.667 95.9801 344.333 95.9801 333.333 95.9801C322.333 95.9801 311 95.9801 300 95.9801C289 95.9801 277.667 95.9801 266.667 95.9801C255.667 95.9801 244.333 95.9801 233.333 95.9801C222.333 95.9801 211 95.9801 200 95.9801C189 95.9801 177.667 95.9801 166.667 95.9801C155.667 95.9801 144.333 95.9801 133.333 95.9801C122.333 95.9801 111 95.9801 100 95.9801C89 95.9801 77.6667 95.9801 66.6667 95.9801C55.6667 95.9801 44.3333 95.9801 33.3333 95.9801C22.3333 95.9801 11 95.9801 5.66667 95.9801H0L0 0Z" fill="#820F28"/>
</svg>
