<svg width="116" height="64" viewBox="0 0 116 64" fill="none" xmlns="http://www.w3.org/2000/svg">
<path d="M12.3103 17.216C10.0383 18.08 8.27825 19.424 7.03025 21.248C5.78225 23.04 5.15825 25.248 5.15825 27.872C5.15825 29.056 5.27025 29.888 5.49425 30.368C5.71825 30.816 5.83025 31.072 5.83025 31.136C4.10225 31.136 2.80625 30.784 1.94225 30.08C1.11025 29.344 0.69425 28.144 0.69425 26.48C0.69425 24.432 1.52625 22.448 3.19025 20.528C4.88625 18.576 7.04625 17.008 9.67025 15.824C12.2943 14.608 14.9183 14 17.5423 14C17.9903 14 18.6303 14.032 19.4623 14.096L19.8943 43.616L29.9743 14.24H33.3343L19.9903 50H13.0782L12.3103 17.216ZM37.9535 23.408C36.8975 23.408 36.0015 23.04 35.2655 22.304C34.5295 21.568 34.1615 20.672 34.1615 19.616C34.1615 18.56 34.5295 17.664 35.2655 16.928C36.0015 16.16 36.8975 15.776 37.9535 15.776C39.0095 15.776 39.9055 16.16 40.6415 16.928C41.4095 17.664 41.7935 18.56 41.7935 19.616C41.7935 20.672 41.4095 21.568 40.6415 22.304C39.9055 23.04 39.0095 23.408 37.9535 23.408ZM34.6895 50.288C33.1535 50.288 31.9055 49.808 30.9455 48.848C30.0175 47.888 29.5535 46.448 29.5535 44.528C29.5535 43.728 29.6815 42.688 29.9375 41.408L33.2015 26H40.1135L36.6575 42.32C36.5295 42.8 36.4655 43.312 36.4655 43.856C36.4655 44.496 36.6095 44.96 36.8975 45.248C37.2175 45.504 37.7295 45.632 38.4335 45.632C39.3615 45.632 40.2255 45.248 41.0255 44.48C41.8255 43.68 42.4015 42.656 42.7535 41.408H44.7695C43.5855 44.864 42.0655 47.216 40.2095 48.464C38.3535 49.68 36.5135 50.288 34.6895 50.288ZM60.0624 50.288C58.1104 50.288 56.6704 49.776 55.7424 48.752C54.8464 47.696 54.3984 46.4 54.3984 44.864C54.3984 44.192 54.4784 43.44 54.6384 42.608C54.7984 41.744 54.9584 40.912 55.1184 40.112C55.3104 39.312 55.4384 38.8 55.5024 38.576C55.7584 37.456 55.9984 36.352 56.2224 35.264C56.4464 34.176 56.5584 33.296 56.5584 32.624C56.5584 30.992 55.9824 30.176 54.8304 30.176C53.9984 30.176 53.2624 30.592 52.6224 31.424C51.9824 32.224 51.4704 33.28 51.0864 34.592L47.8224 50H40.9104L45.9984 26H52.9104L52.3824 28.496C53.9824 26.704 55.8544 25.808 57.9984 25.808C59.6304 25.808 60.9264 26.256 61.8864 27.152C62.8464 28.048 63.3264 29.408 63.3264 31.232C63.3264 32.16 63.2144 33.2 62.9904 34.352C62.7664 35.472 62.4464 36.848 62.0304 38.48C61.7744 39.472 61.5344 40.448 61.3104 41.408C61.1184 42.336 61.0224 43.072 61.0224 43.616C61.0224 44.256 61.1664 44.752 61.4544 45.104C61.7424 45.456 62.2384 45.632 62.9424 45.632C63.9024 45.632 64.6704 45.296 65.2464 44.624C65.8224 43.92 66.3984 42.848 66.9744 41.408H68.9904C67.8064 44.928 66.4304 47.296 64.8624 48.512C63.3264 49.696 61.7264 50.288 60.0624 50.288ZM84.2968 50.288C82.3448 50.288 80.9048 49.776 79.9768 48.752C79.0808 47.696 78.6328 46.4 78.6328 44.864C78.6328 44.192 78.7128 43.44 78.8728 42.608C79.0328 41.744 79.1928 40.912 79.3528 40.112C79.5448 39.312 79.6727 38.8 79.7368 38.576C79.9928 37.456 80.2328 36.352 80.4568 35.264C80.6808 34.176 80.7928 33.296 80.7928 32.624C80.7928 30.992 80.2168 30.176 79.0648 30.176C78.2328 30.176 77.4968 30.592 76.8568 31.424C76.2168 32.224 75.7048 33.28 75.3208 34.592L72.0568 50H65.1447L70.2328 26H77.1448L76.6168 28.496C78.2168 26.704 80.0888 25.808 82.2328 25.808C83.8648 25.808 85.1608 26.256 86.1208 27.152C87.0808 28.048 87.5608 29.408 87.5608 31.232C87.5608 32.16 87.4488 33.2 87.2248 34.352C87.0008 35.472 86.6808 36.848 86.2648 38.48C86.0088 39.472 85.7688 40.448 85.5448 41.408C85.3528 42.336 85.2568 43.072 85.2568 43.616C85.2568 44.256 85.4008 44.752 85.6888 45.104C85.9768 45.456 86.4728 45.632 87.1768 45.632C88.1368 45.632 88.9048 45.296 89.4808 44.624C90.0568 43.92 90.6328 42.848 91.2087 41.408H93.2248C92.0408 44.928 90.6648 47.296 89.0968 48.512C87.5608 49.696 85.9608 50.288 84.2968 50.288ZM98.2111 50.192C95.8431 50.192 93.9711 49.584 92.5951 48.368C91.2191 47.152 90.5311 45.232 90.5311 42.608C90.5311 40.4 90.9631 37.984 91.8271 35.36C92.6911 32.704 94.0991 30.416 96.0511 28.496C98.0031 26.544 100.499 25.568 103.539 25.568C107.315 25.568 109.347 27.728 109.635 32.048C110.339 31.888 110.963 31.504 111.507 30.896C112.051 30.256 112.563 29.536 113.043 28.736H114.579C113.715 30.464 112.947 31.824 112.275 32.816C111.603 33.776 110.723 34.56 109.635 35.168C109.443 38.176 108.819 40.816 107.763 43.088C106.739 45.36 105.395 47.12 103.731 48.368C102.067 49.584 100.227 50.192 98.2111 50.192ZM100.131 45.872C101.315 45.872 102.419 44.912 103.443 42.992C104.467 41.072 105.171 38.704 105.555 35.888C104.787 35.6 104.403 34.88 104.403 33.728C104.403 32.48 104.851 31.648 105.747 31.232C105.683 30.208 105.507 29.504 105.219 29.12C104.963 28.704 104.531 28.496 103.923 28.496C102.867 28.496 101.859 29.264 100.899 30.8C99.9391 32.304 99.1551 34.144 98.5471 36.32C97.9711 38.464 97.6831 40.352 97.6831 41.984C97.6831 43.52 97.8591 44.56 98.2111 45.104C98.5631 45.616 99.2031 45.872 100.131 45.872Z" fill="#C9C9C9"/>
</svg>
