<svg width="100" height="40" viewBox="0 0 100 40" fill="none" xmlns="http://www.w3.org/2000/svg">
<path fill-rule="evenodd" clip-rule="evenodd" d="M100 0H0V40H100V0ZM15.0892 8.62769C13.3415 9.29231 11.9877 10.3262 11.0277 11.7292C10.0677 13.1077 9.58769 14.8062 9.58769 16.8246C9.58769 17.7354 9.67385 18.3754 9.84615 18.7446C10.0185 19.0892 10.1046 19.2862 10.1046 19.3354C8.77538 19.3354 7.77846 19.0646 7.11385 18.5231C6.47385 17.9569 6.15385 17.0338 6.15385 15.7538C6.15385 14.1785 6.79385 12.6523 8.07385 11.1754C9.37846 9.67385 11.04 8.46769 13.0585 7.55692C15.0769 6.62154 17.0954 6.15385 19.1138 6.15385C19.4585 6.15385 19.9508 6.17846 20.5908 6.22769L20.9231 28.9354L28.6769 6.33846H31.2615L20.9969 33.8462H15.68L15.0892 8.62769ZM34.8148 13.3908C34.0025 13.3908 33.3133 13.1077 32.7471 12.5415C32.181 11.9754 31.8979 11.2862 31.8979 10.4738C31.8979 9.66154 32.181 8.97231 32.7471 8.40616C33.3133 7.81539 34.0025 7.52 34.8148 7.52C35.6271 7.52 36.3163 7.81539 36.8825 8.40616C37.4733 8.97231 37.7687 9.66154 37.7687 10.4738C37.7687 11.2862 37.4733 11.9754 36.8825 12.5415C36.3163 13.1077 35.6271 13.3908 34.8148 13.3908ZM32.304 34.0677C31.1225 34.0677 30.1625 33.6985 29.424 32.96C28.7102 32.2215 28.3533 31.1138 28.3533 29.6369C28.3533 29.0215 28.4517 28.2215 28.6487 27.2369L31.1594 15.3846H36.4763L33.8179 27.9385C33.7194 28.3077 33.6702 28.7015 33.6702 29.12C33.6702 29.6123 33.781 29.9692 34.0025 30.1908C34.2487 30.3877 34.6425 30.4862 35.184 30.4862C35.8979 30.4862 36.5625 30.1908 37.1779 29.6C37.7514 29.0265 38.1752 28.3033 38.4494 27.4305L41.0032 15.3846H46.3201L45.9139 17.3046C47.1447 15.9262 48.5847 15.2369 50.2339 15.2369C51.4893 15.2369 52.4862 15.5815 53.2247 16.2708C53.9632 16.96 54.3324 18.0062 54.3324 19.4092C54.3324 20.1231 54.2463 20.9231 54.0739 21.8092C53.9016 22.6708 53.6555 23.7292 53.3355 24.9846C53.1386 25.7477 52.9539 26.4985 52.7816 27.2369C52.6339 27.9508 52.5601 28.5169 52.5601 28.9354C52.5601 29.4277 52.6709 29.8092 52.8924 30.08C53.1139 30.3508 53.4955 30.4862 54.037 30.4862C54.7755 30.4862 55.3662 30.2277 55.8093 29.7108C56.248 29.1746 56.6866 28.361 57.1253 27.27L59.645 15.3846H64.9619L64.5558 17.3046C65.7865 15.9262 67.2265 15.2369 68.8758 15.2369C70.1311 15.2369 71.1281 15.5815 71.8665 16.2708C72.605 16.96 72.9742 18.0062 72.9742 19.4092C72.9742 20.1231 72.8881 20.9231 72.7158 21.8092C72.5435 22.6708 72.2973 23.7292 71.9773 24.9846C71.7804 25.7477 71.5958 26.4985 71.4235 27.2369C71.2758 27.9508 71.2019 28.5169 71.2019 28.9354C71.2019 29.4277 71.3127 29.8092 71.5342 30.08C71.7558 30.3508 72.1373 30.4862 72.6788 30.4862C73.4173 30.4862 74.0081 30.2277 74.4511 29.7108C74.7214 29.3805 74.9916 28.945 75.2618 28.4042C75.26 28.3237 75.2591 28.2423 75.2591 28.16C75.2591 26.4615 75.5914 24.6031 76.2561 22.5846C76.9207 20.5415 78.0037 18.7815 79.5053 17.3046C81.0068 15.8031 82.9268 15.0523 85.2653 15.0523C88.1699 15.0523 89.733 16.7138 89.9545 20.0369C90.496 19.9138 90.9761 19.6185 91.3945 19.1508C91.813 18.6585 92.2068 18.1046 92.5761 17.4892H93.7576C93.093 18.8185 92.5022 19.8646 91.9853 20.6277C91.4684 21.3662 90.7914 21.9692 89.9545 22.4369C89.8068 24.7508 89.3268 26.7815 88.5145 28.5292C87.7268 30.2769 86.693 31.6308 85.413 32.5908C84.133 33.5262 82.7176 33.9938 81.1668 33.9938C79.3453 33.9938 77.9053 33.5262 76.8468 32.5908C76.3448 32.1472 75.9619 31.5818 75.698 30.8946C75.214 31.6772 74.6999 32.2796 74.1558 32.7015C72.9742 33.6123 71.7435 34.0677 70.4635 34.0677C68.9619 34.0677 67.8542 33.6738 67.1404 32.8862C66.4511 32.0738 66.1065 31.0769 66.1065 29.8954C66.1065 29.3785 66.1681 28.8 66.2911 28.16C66.4142 27.4954 66.5373 26.8554 66.6604 26.24C66.8081 25.6246 66.9065 25.2308 66.9558 25.0585C67.1527 24.1969 67.3373 23.3477 67.5096 22.5108C67.6819 21.6738 67.7681 20.9969 67.7681 20.48C67.7681 19.2246 67.325 18.5969 66.4388 18.5969C65.7988 18.5969 65.2327 18.9169 64.7404 19.5569C64.2481 20.1723 63.8542 20.9846 63.5588 21.9938L61.0481 33.8462H55.7312L56.084 32.182C55.8978 32.378 55.7078 32.5512 55.5139 32.7015C54.3324 33.6123 53.1016 34.0677 51.8216 34.0677C50.3201 34.0677 49.2124 33.6738 48.4986 32.8862C47.8093 32.0738 47.4647 31.0769 47.4647 29.8954C47.4647 29.3785 47.5262 28.8 47.6493 28.16C47.7724 27.4954 47.8955 26.8554 48.0186 26.24C48.1662 25.6246 48.2647 25.2308 48.3139 25.0585C48.5109 24.1969 48.6955 23.3477 48.8678 22.5108C49.0401 21.6738 49.1262 20.9969 49.1262 20.48C49.1262 19.2246 48.6832 18.5969 47.797 18.5969C47.157 18.5969 46.5909 18.9169 46.0986 19.5569C45.6063 20.1723 45.2124 20.9846 44.917 21.9938L42.4062 33.8462H37.0893L37.5129 31.8482C37.2062 32.1671 36.8853 32.4393 36.5502 32.6646C35.1225 33.6 33.7071 34.0677 32.304 34.0677ZM85.1914 28.4554C84.4037 29.9323 83.5545 30.6708 82.6437 30.6708C81.9299 30.6708 81.4376 30.4738 81.1668 30.08C80.8961 29.6615 80.7607 28.8615 80.7607 27.68C80.7607 26.4246 80.9822 24.9723 81.4253 23.3231C81.893 21.6492 82.496 20.2338 83.2345 19.0769C83.973 17.8954 84.7484 17.3046 85.5607 17.3046C86.0284 17.3046 86.3607 17.4646 86.5576 17.7846C86.7791 18.08 86.9145 18.6215 86.9637 19.4092C86.2745 19.7292 85.9299 20.3692 85.9299 21.3292C85.9299 22.2154 86.2253 22.7692 86.8161 22.9908C86.5207 25.1569 85.9791 26.9785 85.1914 28.4554Z" fill="white"/>
</svg>
